<?xml version="1.0" encoding="utf-8"?>
<!-- Generator: Adobe Illustrator 12.0.0, SVG Export Plug-In . SVG Version: 6.00 Build 51448)  -->
<!DOCTYPE svg PUBLIC "-//W3C//DTD SVG 1.1//EN" "http://www.w3.org/Graphics/SVG/1.1/DTD/svg11.dtd" [
	<!ENTITY ns_svg "http://www.w3.org/2000/svg">
	<!ENTITY ns_xlink "http://www.w3.org/1999/xlink">
]>
<svg  version="1.1" id="Ebene_1" xmlns="&ns_svg;" xmlns:xlink="&ns_xlink;" width="882.981" height="882.454"
	 viewBox="0 0 882.981 882.454" overflow="visible" enable-background="new 0 0 882.981 882.454" xml:space="preserve">
<g>
	<g>
		<g>
			<g>
				<radialGradient id="XMLID_6_" cx="144.5049" cy="736.4399" r="142.9442" gradientUnits="userSpaceOnUse">
					<stop  offset="0" style="stop-color:#9E9E9E"/>
					<stop  offset="0.3403" style="stop-color:#606060"/>
					<stop  offset="0.6413" style="stop-color:#303030"/>
					<stop  offset="0.8702" style="stop-color:#121212"/>
					<stop  offset="1" style="stop-color:#070707"/>
				</radialGradient>
				<path fill="url(#XMLID_6_)" d="M288.157,824.627c-0.901-3.165-2.605-6.151-5.134-8.629l-4.31-4.221
					c-0.613-0.601-1.267-1.138-1.937-1.646L63.344,600.854c-3.967-3.891-9.211-5.811-14.443-5.774
					c-5.347-0.129-10.736,1.775-14.793,5.749L6.044,628.317c-4.729,4.631-6.59,11.033-5.628,17.076
					C0.144,646.702,0,648.056,0,649.442l0.002,94.822c0,1.766,0.254,3.471,0.689,5.104c-0.741,5.859,1.152,11.984,5.719,16.458
					L113.036,870.26c4.003,3.921,9.304,5.833,14.58,5.76c2.507,1.137,5.277,1.786,8.196,1.786h97.65c1.75,0,3.44-0.251,5.061-0.678
					c5.87,0.606,11.963-1.272,16.437-5.654l9.349-9.156c0.912-0.632,1.791-1.326,2.606-2.124l16.196-15.846
					C288.541,839.037,290.22,831.389,288.157,824.627z M43.952,743.541l-0.001-73.967l168.465,165.186h-75.333L43.952,743.541z"/>
			</g>
		</g>
		<g>
			<g>
				<radialGradient id="XMLID_7_" cx="735.7505" cy="737.0728" r="142.9694" gradientUnits="userSpaceOnUse">
					<stop  offset="0" style="stop-color:#9E9E9E"/>
					<stop  offset="0.3403" style="stop-color:#606060"/>
					<stop  offset="0.6413" style="stop-color:#303030"/>
					<stop  offset="0.8702" style="stop-color:#121212"/>
					<stop  offset="1" style="stop-color:#070707"/>
				</radialGradient>
				<path fill="url(#XMLID_7_)" d="M876.267,745.94l-0.003-98.483c0-1.732-0.246-3.406-0.665-5.012
					c0.591-5.893-1.279-12.005-5.624-16.494l-9.104-9.408c-0.628-0.915-1.317-1.799-2.108-2.617l-15.754-16.299
					c-5.279-5.462-12.882-7.151-19.602-5.074c-3.145,0.907-6.112,2.62-8.573,5.163l-4.2,4.339c-0.6,0.619-1.135,1.279-1.641,1.956
					L600.977,818.728c-3.873,3.998-5.78,9.284-5.736,14.557c-0.121,5.369,1.772,10.778,5.715,14.853l27.325,28.238
					c4.618,4.772,11.008,6.643,17.032,5.653c1.319,0.276,2.684,0.425,4.082,0.425l94.013-0.002c1.78,0,3.499-0.258,5.145-0.7
					c5.837,0.763,11.945-1.139,16.403-5.745L868.766,768.73c3.885-4.015,5.787-9.325,5.726-14.617
					C875.623,751.612,876.267,748.85,876.267,745.94z M742.808,838.237h-73.522l164.19-169.482l0.002,75.785L742.808,838.237z"/>
			</g>
		</g>
		<g>
			<g>
				<radialGradient id="XMLID_8_" cx="738.4751" cy="142.3735" r="142.9447" gradientUnits="userSpaceOnUse">
					<stop  offset="0" style="stop-color:#9E9E9E"/>
					<stop  offset="0.3403" style="stop-color:#606060"/>
					<stop  offset="0.6413" style="stop-color:#303030"/>
					<stop  offset="0.8702" style="stop-color:#121212"/>
					<stop  offset="1" style="stop-color:#070707"/>
				</radialGradient>
				<path fill="url(#XMLID_8_)" d="M882.981,229.374l-0.002-94.824c0-1.766-0.255-3.471-0.689-5.105
					c0.74-5.858-1.153-11.983-5.72-16.456L769.945,8.554c-4.002-3.92-9.302-5.833-14.577-5.76c-2.508-1.137-5.278-1.787-8.198-1.787
					l-97.65,0.001c-1.749,0-3.438,0.25-5.059,0.678c-5.871-0.608-11.966,1.27-16.44,5.653l-9.356,9.164
					c-0.907,0.63-1.784,1.323-2.597,2.118L599.87,34.466c-5.429,5.311-7.109,12.958-5.047,19.718
					c0.901,3.166,2.604,6.153,5.134,8.63l4.311,4.222c0.613,0.601,1.267,1.138,1.937,1.645l213.433,209.28
					c3.97,3.892,9.217,5.812,14.452,5.773c5.344,0.127,10.729-1.778,14.784-5.75l28.063-27.487
					c4.728-4.631,6.59-11.032,5.629-17.075C882.836,232.114,882.981,230.76,882.981,229.374z M839.028,135.273l0.002,73.969
					L670.567,44.056l75.331-0.001L839.028,135.273z"/>
			</g>
		</g>
		<g>
			<g>
				<radialGradient id="XMLID_9_" cx="142.1279" cy="145.3804" r="142.9689" gradientUnits="userSpaceOnUse">
					<stop  offset="0" style="stop-color:#9E9E9E"/>
					<stop  offset="0.3403" style="stop-color:#606060"/>
					<stop  offset="0.6413" style="stop-color:#303030"/>
					<stop  offset="0.8702" style="stop-color:#121212"/>
					<stop  offset="1" style="stop-color:#070707"/>
				</radialGradient>
				<path fill="url(#XMLID_9_)" d="M276.924,34.316L249.598,6.078c-4.618-4.772-11.007-6.642-17.031-5.653
					C231.247,0.148,229.882,0,228.483,0l-94.012,0.001c-1.78,0-3.499,0.258-5.145,0.7c-5.837-0.762-11.946,1.139-16.404,5.746
					L9.111,113.722c-3.885,4.015-5.788,9.328-5.726,14.62c-1.13,2.5-1.774,5.261-1.774,8.17l0.001,98.484
					c0,1.733,0.247,3.407,0.666,5.013c-0.59,5.892,1.28,12.003,5.625,16.492l9.107,9.411c0.627,0.914,1.315,1.797,2.106,2.615
					l15.754,16.299c5.278,5.46,12.877,7.15,19.596,5.076c3.146-0.906,6.116-2.62,8.578-5.165l4.201-4.34
					c0.599-0.618,1.133-1.277,1.638-1.952L276.9,63.726c3.868-3.993,5.776-9.271,5.738-14.537
					C282.764,43.813,280.871,38.396,276.924,34.316z M135.07,44.217l73.523-0.001L44.401,213.701L44.4,137.913L135.07,44.217z"/>
			</g>
		</g>
		<rect x="268.164" y="28.992" width="342.62" height="23.827"/>
		<rect x="268.985" y="831.542" width="342.619" height="23.826"/>
		<rect x="26.594" y="269.166" width="23.684" height="344.697"/>
		<rect x="827.722" y="268.975" width="23.683" height="344.697"/>
	</g>
	<g>
		<g>
			<radialGradient id="XMLID_10_" cx="440.2905" cy="436.9292" r="391.5731" gradientUnits="userSpaceOnUse">
				<stop  offset="0" style="stop-color:#DFDFDF"/>
				<stop  offset="0.2176" style="stop-color:#DBDBDB"/>
				<stop  offset="0.4364" style="stop-color:#CFCFCF"/>
				<stop  offset="0.6558" style="stop-color:#BBBBBB"/>
				<stop  offset="0.8743" style="stop-color:#9F9F9F"/>
				<stop  offset="1" style="stop-color:#8B8B8B"/>
			</radialGradient>
			<polygon fill="url(#XMLID_10_)" points="837.186,274.889 835.488,274.889 603.019,41.014 602.333,41.705 274.384,41.705 
				274.358,41.679 274.333,41.705 272.891,41.705 272.891,43.156 42.554,274.889 41.424,274.889 41.424,276.025 41.022,276.43 
				41.424,276.835 41.424,606.011 40.644,606.796 272.891,840.452 272.891,842.286 602.878,842.286 602.878,841.691 
				603.399,842.214 836.736,607.463 836.153,606.876 837.186,606.876 			"/>
		</g>
	</g>
</g>
</svg>
